<mxfile host="Electron" modified="2024-01-20T01:14:26.827Z" agent="Mozilla/5.0 (Macintosh; Intel Mac OS X 10_15_7) AppleWebKit/537.36 (KHTML, like Gecko) draw.io/22.1.18 Chrome/120.0.6099.199 Electron/28.1.2 Safari/537.36" etag="gEeyAS6AvIiLHxXArv4_" version="22.1.18" type="device">
  <diagram name="第 1 页" id="LUjIA7UPD3IyBp7PXDvI">
    <mxGraphModel dx="852" dy="548" grid="0" gridSize="10" guides="1" tooltips="1" connect="1" arrows="1" fold="1" page="1" pageScale="1" pageWidth="1169" pageHeight="1654" math="0" shadow="0">
      <root>
        <mxCell id="0" />
        <mxCell id="1" parent="0" />
        <mxCell id="JYmDZ25oWR9fzIoNogmh-3" value="" style="rounded=0;whiteSpace=wrap;html=1;strokeColor=none;fillColor=none;" parent="1" vertex="1">
          <mxGeometry x="163" y="190" width="662" height="251" as="geometry" />
        </mxCell>
        <mxCell id="FdsxTbEb1P6pZOjH1wWn-1" value="&lt;font style=&quot;font-size: 18px;&quot; face=&quot;Times New Roman&quot;&gt;&lt;b&gt;A&lt;/b&gt;&lt;/font&gt;" style="whiteSpace=wrap;html=1;aspect=fixed;fillColor=#FFB703;" parent="1" vertex="1">
          <mxGeometry x="228" y="219" width="38" height="38" as="geometry" />
        </mxCell>
        <mxCell id="FdsxTbEb1P6pZOjH1wWn-2" value="&lt;font face=&quot;Times New Roman&quot;&gt;&lt;span style=&quot;font-size: 18px;&quot;&gt;&lt;b&gt;B&lt;/b&gt;&lt;/span&gt;&lt;/font&gt;" style="whiteSpace=wrap;html=1;aspect=fixed;fillColor=#FFB703;" parent="1" vertex="1">
          <mxGeometry x="266" y="219" width="38" height="38" as="geometry" />
        </mxCell>
        <mxCell id="FdsxTbEb1P6pZOjH1wWn-3" value="&lt;font face=&quot;Times New Roman&quot;&gt;&lt;span style=&quot;font-size: 18px;&quot;&gt;&lt;b&gt;C&lt;/b&gt;&lt;/span&gt;&lt;/font&gt;" style="whiteSpace=wrap;html=1;aspect=fixed;fillColor=#FFB703;" parent="1" vertex="1">
          <mxGeometry x="304" y="219" width="38" height="38" as="geometry" />
        </mxCell>
        <mxCell id="FdsxTbEb1P6pZOjH1wWn-4" value="&lt;font face=&quot;Times New Roman&quot;&gt;&lt;span style=&quot;font-size: 18px;&quot;&gt;&lt;b&gt;D&lt;/b&gt;&lt;/span&gt;&lt;/font&gt;" style="whiteSpace=wrap;html=1;aspect=fixed;fillColor=#FFB703;" parent="1" vertex="1">
          <mxGeometry x="342" y="219" width="38" height="38" as="geometry" />
        </mxCell>
        <mxCell id="FdsxTbEb1P6pZOjH1wWn-5" value="" style="whiteSpace=wrap;html=1;aspect=fixed;fillColor=#90C9E6;" parent="1" vertex="1">
          <mxGeometry x="228" y="271" width="38" height="38" as="geometry" />
        </mxCell>
        <mxCell id="FdsxTbEb1P6pZOjH1wWn-6" value="" style="whiteSpace=wrap;html=1;aspect=fixed;fillColor=#90C9E6;" parent="1" vertex="1">
          <mxGeometry x="266" y="271" width="38" height="38" as="geometry" />
        </mxCell>
        <mxCell id="FdsxTbEb1P6pZOjH1wWn-7" value="" style="whiteSpace=wrap;html=1;aspect=fixed;fillColor=#90C9E6;" parent="1" vertex="1">
          <mxGeometry x="304" y="271" width="38" height="38" as="geometry" />
        </mxCell>
        <mxCell id="FdsxTbEb1P6pZOjH1wWn-8" value="" style="whiteSpace=wrap;html=1;aspect=fixed;fillColor=#90C9E6;" parent="1" vertex="1">
          <mxGeometry x="342" y="271" width="38" height="38" as="geometry" />
        </mxCell>
        <mxCell id="FdsxTbEb1P6pZOjH1wWn-9" value="" style="whiteSpace=wrap;html=1;aspect=fixed;fillColor=#FB8402;" parent="1" vertex="1">
          <mxGeometry x="228" y="321" width="38" height="38" as="geometry" />
        </mxCell>
        <mxCell id="FdsxTbEb1P6pZOjH1wWn-10" value="" style="whiteSpace=wrap;html=1;aspect=fixed;fillColor=#FB8402;" parent="1" vertex="1">
          <mxGeometry x="266" y="321" width="38" height="38" as="geometry" />
        </mxCell>
        <mxCell id="FdsxTbEb1P6pZOjH1wWn-11" value="" style="whiteSpace=wrap;html=1;aspect=fixed;fillColor=#FB8402;" parent="1" vertex="1">
          <mxGeometry x="304" y="321" width="38" height="38" as="geometry" />
        </mxCell>
        <mxCell id="FdsxTbEb1P6pZOjH1wWn-12" value="" style="whiteSpace=wrap;html=1;aspect=fixed;fillColor=#FB8402;" parent="1" vertex="1">
          <mxGeometry x="342" y="321" width="38" height="38" as="geometry" />
        </mxCell>
        <mxCell id="FdsxTbEb1P6pZOjH1wWn-13" value="" style="whiteSpace=wrap;html=1;aspect=fixed;fillColor=#219EBC;" parent="1" vertex="1">
          <mxGeometry x="228" y="371" width="38" height="38" as="geometry" />
        </mxCell>
        <mxCell id="FdsxTbEb1P6pZOjH1wWn-14" value="" style="whiteSpace=wrap;html=1;aspect=fixed;fillColor=#219EBC;" parent="1" vertex="1">
          <mxGeometry x="266" y="371" width="38" height="38" as="geometry" />
        </mxCell>
        <mxCell id="FdsxTbEb1P6pZOjH1wWn-15" value="" style="whiteSpace=wrap;html=1;aspect=fixed;fillColor=#219EBC;" parent="1" vertex="1">
          <mxGeometry x="304" y="371" width="38" height="38" as="geometry" />
        </mxCell>
        <mxCell id="FdsxTbEb1P6pZOjH1wWn-16" value="" style="whiteSpace=wrap;html=1;aspect=fixed;fillColor=#219EBC;" parent="1" vertex="1">
          <mxGeometry x="342" y="371" width="38" height="38" as="geometry" />
        </mxCell>
        <mxCell id="FdsxTbEb1P6pZOjH1wWn-17" value="&lt;font style=&quot;font-size: 18px;&quot; face=&quot;Times New Roman&quot;&gt;&lt;b&gt;P0&lt;/b&gt;&lt;/font&gt;" style="text;html=1;strokeColor=none;fillColor=none;align=center;verticalAlign=middle;whiteSpace=wrap;rounded=0;fontColor=#000000;" parent="1" vertex="1">
          <mxGeometry x="159" y="223" width="60" height="30" as="geometry" />
        </mxCell>
        <mxCell id="FdsxTbEb1P6pZOjH1wWn-18" value="&lt;font style=&quot;font-size: 18px;&quot; face=&quot;Times New Roman&quot;&gt;&lt;b&gt;P1&lt;/b&gt;&lt;/font&gt;" style="text;html=1;strokeColor=none;fillColor=none;align=center;verticalAlign=middle;whiteSpace=wrap;rounded=0;fontColor=#000000;" parent="1" vertex="1">
          <mxGeometry x="159" y="275" width="60" height="30" as="geometry" />
        </mxCell>
        <mxCell id="FdsxTbEb1P6pZOjH1wWn-19" value="&lt;font style=&quot;font-size: 18px;&quot; face=&quot;Times New Roman&quot;&gt;&lt;b&gt;P2&lt;/b&gt;&lt;/font&gt;" style="text;html=1;strokeColor=none;fillColor=none;align=center;verticalAlign=middle;whiteSpace=wrap;rounded=0;fontColor=#000000;" parent="1" vertex="1">
          <mxGeometry x="159" y="325" width="60" height="30" as="geometry" />
        </mxCell>
        <mxCell id="FdsxTbEb1P6pZOjH1wWn-20" value="&lt;font style=&quot;font-size: 18px;&quot; face=&quot;Times New Roman&quot;&gt;&lt;b&gt;P3&lt;/b&gt;&lt;/font&gt;" style="text;html=1;strokeColor=none;fillColor=none;align=center;verticalAlign=middle;whiteSpace=wrap;rounded=0;fontColor=#000000;" parent="1" vertex="1">
          <mxGeometry x="159" y="375" width="60" height="30" as="geometry" />
        </mxCell>
        <mxCell id="FdsxTbEb1P6pZOjH1wWn-21" value="" style="html=1;shadow=0;dashed=0;align=center;verticalAlign=middle;shape=mxgraph.arrows2.arrow;dy=0.6;dx=40;notch=15;fillColor=#023047;" parent="1" vertex="1">
          <mxGeometry x="433" y="270" width="155" height="48" as="geometry" />
        </mxCell>
        <mxCell id="FdsxTbEb1P6pZOjH1wWn-22" value="&lt;font style=&quot;font-size: 20px;&quot;&gt;&lt;b style=&quot;&quot;&gt;&lt;i style=&quot;&quot;&gt;Scatter&lt;/i&gt;&lt;/b&gt;&lt;/font&gt;" style="text;html=1;strokeColor=none;fillColor=none;align=center;verticalAlign=middle;whiteSpace=wrap;rounded=0;" parent="1" vertex="1">
          <mxGeometry x="436" y="240" width="134" height="30" as="geometry" />
        </mxCell>
        <mxCell id="FdsxTbEb1P6pZOjH1wWn-23" value="&lt;font style=&quot;font-size: 18px;&quot; face=&quot;Times New Roman&quot;&gt;&lt;b&gt;A&lt;/b&gt;&lt;/font&gt;" style="whiteSpace=wrap;html=1;aspect=fixed;fillColor=#FFB703;" parent="1" vertex="1">
          <mxGeometry x="649" y="219" width="38" height="38" as="geometry" />
        </mxCell>
        <mxCell id="FdsxTbEb1P6pZOjH1wWn-24" value="" style="whiteSpace=wrap;html=1;aspect=fixed;fillColor=#FFB703;" parent="1" vertex="1">
          <mxGeometry x="687" y="219" width="38" height="38" as="geometry" />
        </mxCell>
        <mxCell id="FdsxTbEb1P6pZOjH1wWn-25" value="" style="whiteSpace=wrap;html=1;aspect=fixed;fillColor=#FFB703;" parent="1" vertex="1">
          <mxGeometry x="725" y="219" width="38" height="38" as="geometry" />
        </mxCell>
        <mxCell id="FdsxTbEb1P6pZOjH1wWn-26" value="" style="whiteSpace=wrap;html=1;aspect=fixed;fillColor=#FFB703;" parent="1" vertex="1">
          <mxGeometry x="763" y="219" width="38" height="38" as="geometry" />
        </mxCell>
        <mxCell id="FdsxTbEb1P6pZOjH1wWn-27" value="&lt;b style=&quot;border-color: var(--border-color); font-family: &amp;quot;Times New Roman&amp;quot;; font-size: 18px;&quot;&gt;B&lt;/b&gt;" style="whiteSpace=wrap;html=1;aspect=fixed;fillColor=#90C9E6;" parent="1" vertex="1">
          <mxGeometry x="649" y="271" width="38" height="38" as="geometry" />
        </mxCell>
        <mxCell id="FdsxTbEb1P6pZOjH1wWn-28" value="" style="whiteSpace=wrap;html=1;aspect=fixed;fillColor=#90C9E6;" parent="1" vertex="1">
          <mxGeometry x="687" y="271" width="38" height="38" as="geometry" />
        </mxCell>
        <mxCell id="FdsxTbEb1P6pZOjH1wWn-29" value="" style="whiteSpace=wrap;html=1;aspect=fixed;fillColor=#90C9E6;" parent="1" vertex="1">
          <mxGeometry x="725" y="271" width="38" height="38" as="geometry" />
        </mxCell>
        <mxCell id="FdsxTbEb1P6pZOjH1wWn-30" value="" style="whiteSpace=wrap;html=1;aspect=fixed;fillColor=#90C9E6;" parent="1" vertex="1">
          <mxGeometry x="763" y="271" width="38" height="38" as="geometry" />
        </mxCell>
        <mxCell id="FdsxTbEb1P6pZOjH1wWn-31" value="&lt;b style=&quot;border-color: var(--border-color); font-family: &amp;quot;Times New Roman&amp;quot;; font-size: 18px;&quot;&gt;C&lt;/b&gt;" style="whiteSpace=wrap;html=1;aspect=fixed;fillColor=#FB8402;" parent="1" vertex="1">
          <mxGeometry x="649" y="321" width="38" height="38" as="geometry" />
        </mxCell>
        <mxCell id="FdsxTbEb1P6pZOjH1wWn-32" value="" style="whiteSpace=wrap;html=1;aspect=fixed;fillColor=#FB8402;" parent="1" vertex="1">
          <mxGeometry x="687" y="321" width="38" height="38" as="geometry" />
        </mxCell>
        <mxCell id="FdsxTbEb1P6pZOjH1wWn-33" value="" style="whiteSpace=wrap;html=1;aspect=fixed;fillColor=#FB8402;" parent="1" vertex="1">
          <mxGeometry x="725" y="321" width="38" height="38" as="geometry" />
        </mxCell>
        <mxCell id="FdsxTbEb1P6pZOjH1wWn-34" value="" style="whiteSpace=wrap;html=1;aspect=fixed;fillColor=#FB8402;" parent="1" vertex="1">
          <mxGeometry x="763" y="321" width="38" height="38" as="geometry" />
        </mxCell>
        <mxCell id="FdsxTbEb1P6pZOjH1wWn-35" value="&lt;b style=&quot;border-color: var(--border-color); font-family: &amp;quot;Times New Roman&amp;quot;; font-size: 18px;&quot;&gt;D&lt;/b&gt;" style="whiteSpace=wrap;html=1;aspect=fixed;fillColor=#219EBC;" parent="1" vertex="1">
          <mxGeometry x="649" y="371" width="38" height="38" as="geometry" />
        </mxCell>
        <mxCell id="FdsxTbEb1P6pZOjH1wWn-36" value="" style="whiteSpace=wrap;html=1;aspect=fixed;fillColor=#219EBC;" parent="1" vertex="1">
          <mxGeometry x="687" y="371" width="38" height="38" as="geometry" />
        </mxCell>
        <mxCell id="FdsxTbEb1P6pZOjH1wWn-37" value="" style="whiteSpace=wrap;html=1;aspect=fixed;fillColor=#219EBC;" parent="1" vertex="1">
          <mxGeometry x="725" y="371" width="38" height="38" as="geometry" />
        </mxCell>
        <mxCell id="FdsxTbEb1P6pZOjH1wWn-38" value="" style="whiteSpace=wrap;html=1;aspect=fixed;fillColor=#219EBC;" parent="1" vertex="1">
          <mxGeometry x="763" y="371" width="38" height="38" as="geometry" />
        </mxCell>
        <mxCell id="FdsxTbEb1P6pZOjH1wWn-39" value="" style="html=1;shadow=0;dashed=0;align=center;verticalAlign=middle;shape=mxgraph.arrows2.arrow;dy=0.6;dx=40;notch=15;fillColor=#023047;rotation=-180;" parent="1" vertex="1">
          <mxGeometry x="433" y="333" width="155" height="48" as="geometry" />
        </mxCell>
        <mxCell id="FdsxTbEb1P6pZOjH1wWn-40" value="&lt;font style=&quot;font-size: 20px;&quot;&gt;&lt;b style=&quot;&quot;&gt;&lt;i style=&quot;&quot;&gt;Gather&lt;/i&gt;&lt;/b&gt;&lt;/font&gt;" style="text;html=1;strokeColor=none;fillColor=none;align=center;verticalAlign=middle;whiteSpace=wrap;rounded=0;" parent="1" vertex="1">
          <mxGeometry x="443.5" y="386" width="134" height="30" as="geometry" />
        </mxCell>
      </root>
    </mxGraphModel>
  </diagram>
</mxfile>
